<?xml version="1.0" encoding="utf-8"?>
<!-- Generator: Adobe Illustrator 12.0.0, SVG Export Plug-In . SVG Version: 6.00 Build 51448)  -->
<!DOCTYPE svg PUBLIC "-//W3C//DTD SVG 1.1//EN" "http://www.w3.org/Graphics/SVG/1.1/DTD/svg11.dtd" [
	<!ENTITY ns_svg "http://www.w3.org/2000/svg">
	<!ENTITY ns_xlink "http://www.w3.org/1999/xlink">
]>
<svg  version="1.1" id="Layer_1" xmlns="&ns_svg;" xmlns:xlink="&ns_xlink;" width="65.354" height="8.196"
	 viewBox="0 0 65.354 8.196" overflow="visible" enable-background="new 0 0 65.354 8.196" xml:space="preserve">
<path d="M27.202,5.332h4.164l-2.199-3.545l-4.038,6.408l-1.84,0.001l4.916-7.695C28.412,0.188,28.771,0,29.163,0
	c0.387,0,0.742,0.183,0.951,0.487l4.932,7.708l-1.841-0.001l-0.864-1.432h-4.219L27.202,5.332z M46.305,6.764V0.08h-1.562v7.337
	c0,0.203,0.083,0.397,0.228,0.542c0.153,0.151,0.354,0.235,0.572,0.235h7.116l0.918-1.431H46.305z M20.49,5.567
	c1.515,0,2.743-1.229,2.743-2.744c0-1.515-1.229-2.744-2.743-2.744h-6.829v8.114h1.56V1.51h5.162c0.727,0,1.313,0.587,1.313,1.313
	c0,0.725-0.586,1.314-1.313,1.314l-4.397-0.001l4.657,4.058h2.267l-3.133-2.628L20.49,5.567z M4.058,8.194
	C1.817,8.194,0,6.379,0,4.138S1.817,0.08,4.058,0.08h4.716c2.241,0,4.057,1.816,4.057,4.058c0,2.242-1.816,4.058-4.057,4.058
	L4.058,8.194z M8.669,6.765c1.451,0,2.626-1.176,2.626-2.627S10.12,1.511,8.669,1.511l-4.507,0c-1.451,0-2.627,1.176-2.627,2.627
	s1.176,2.627,2.627,2.627H8.669z M38.302,8.194c-2.24,0-4.058-1.815-4.058-4.057s1.818-4.058,4.058-4.058h5.605l-0.918,1.431
	l-4.581,0c-1.452,0-2.628,1.176-2.628,2.627s1.176,2.627,2.628,2.627h5.626l-0.917,1.43H38.302z M57.39,6.765
	c-1.201,0-2.216-0.808-2.526-1.909h6.67l0.919-1.431l-7.591,0C55.172,2.32,56.186,1.51,57.39,1.51l4.578,0l0.92-1.431h-5.605
	c-2.239,0-4.057,1.816-4.057,4.058s1.818,4.057,4.057,4.057h4.815l0.917-1.43H57.39z"/>
<path d="M63.724,0.944c0-0.396,0.32-0.716,0.717-0.716s0.716,0.321,0.716,0.716c0,0.397-0.319,0.718-0.716,0.718
	S63.724,1.341,63.724,0.944z M64.44,1.859c0.504,0,0.913-0.409,0.913-0.912c0-0.504-0.409-0.912-0.913-0.912
	c-0.503,0-0.911,0.408-0.911,0.912C63.529,1.451,63.938,1.859,64.44,1.859z M64.354,0.406c0.141,0,0.198,0.001,0.268,0.027
	c0.18,0.061,0.198,0.226,0.198,0.287c0,0.013-0.002,0.047-0.011,0.084c-0.011,0.039-0.033,0.117-0.127,0.175
	c-0.011,0.008-0.017,0.013-0.046,0.024l0.237,0.425h-0.229l-0.208-0.391h-0.139v0.391h-0.2V0.406H64.354z M64.426,0.868
	c0.062-0.001,0.13-0.006,0.17-0.064c0.017-0.025,0.023-0.053,0.023-0.088c0-0.055-0.029-0.1-0.077-0.124
	c-0.046-0.018-0.093-0.018-0.188-0.018h-0.057v0.293H64.426z"/>
</svg>
