<?xml version="1.0" encoding="utf-8"?>
<!-- Generator: Adobe Illustrator 12.0.0, SVG Export Plug-In . SVG Version: 6.00 Build 51448)  -->
<!DOCTYPE svg PUBLIC "-//W3C//DTD SVG 1.1//EN" "http://www.w3.org/Graphics/SVG/1.1/DTD/svg11.dtd" [
	<!ENTITY ns_svg "http://www.w3.org/2000/svg">
	<!ENTITY ns_xlink "http://www.w3.org/1999/xlink">
]>
<svg version="1.1" id="Layer_1" xmlns="&ns_svg;" xmlns:xlink="&ns_xlink;" width="66.929" height="86.481" viewBox="0 0 66.929 86.481" overflow="visible" enable-background="new 0 0 66.929 86.481" xml:space="preserve">
<path style="fill: #1E4B6E" d="M60.407,0c0,0-8.908,16.027-18.252,24.5c-7.781,7.058-12.736,11.883-32.25,24.75c-23,15.167-2.083,42,23.417,36.5
	C55.241,81.022,59.407,57.5,59.407,57.5s-4.068,2.021-10.533,3.409c-8.411,1.805-8.92,0.381-8.92,0.381S61.823,54.5,64.573,43
	s2.334-13.667,2.334-13.667s-13.174,11.299-19.51,11.542c0,0,20.176-15.209,18.176-25.209S60.407,0,60.407,0z"/>
</svg>
